<?xml version="1.0" standalone="no"?>
<!DOCTYPE svg PUBLIC "-//W3C//DTD SVG 20010904//EN"
 "http://www.w3.org/TR/2001/REC-SVG-20010904/DTD/svg10.dtd">
<svg version="1.0" xmlns="http://www.w3.org/2000/svg"
 width="1280.000000pt" height="1280.000000pt" viewBox="0 0 1280.000000 1280.000000"
 preserveAspectRatio="xMidYMid meet">
<metadata>
Created by potrace 1.14, written by Peter Selinger 2001-2017
</metadata>
<g transform="translate(0.000000,1280.000000) scale(0.100000,-0.100000)"
fill="#000000" stroke="none">
<path d="M5388 12465 c-2 -2 -1132 -6 -2513 -10 l-2510 -6 -24 -24 c-19 -19
-22 -28 -15 -44 5 -10 92 -84 194 -163 500 -388 489 -380 937 -668 261 -168
447 -319 527 -429 119 -164 174 -362 196 -702 11 -165 6 -6982 -5 -7169 -11
-172 -38 -443 -61 -610 -65 -460 -164 -768 -324 -1006 -50 -73 -207 -252 -276
-314 -349 -313 -674 -553 -1167 -864 -37 -23 -34 -63 8 -87 28 -17 72 -18 675
-14 355 3 1507 7 2560 10 1759 6 1916 7 1927 22 10 13 13 356 13 1635 l0 1618
53 1 c28 0 77 2 107 4 30 2 319 6 641 9 l586 6 16 -42 c8 -24 54 -158 101
-298 46 -140 173 -516 281 -835 107 -319 247 -733 310 -920 63 -187 177 -525
253 -752 76 -227 144 -418 150 -426 10 -12 322 -15 1979 -21 1083 -4 2064 -9
2181 -12 185 -5 216 -4 237 10 14 9 25 23 25 31 0 9 -53 82 -118 163 -65 81
-209 262 -321 402 -112 140 -216 271 -231 290 -16 19 -103 130 -195 245 -92
116 -179 226 -195 245 -15 19 -173 217 -351 440 -177 223 -416 522 -529 665
-114 143 -301 377 -415 520 -113 143 -219 276 -235 295 -216 270 -281 352
-278 354 2 1 100 26 218 55 434 106 638 189 898 364 304 205 633 496 837 742
262 315 442 716 518 1155 35 200 70 478 82 665 4 50 9 101 11 115 2 14 9 231
16 482 9 350 9 574 0 955 -7 274 -14 514 -16 533 -3 19 -7 85 -11 145 -13 247
-63 611 -104 775 -59 234 -118 356 -310 650 -169 260 -336 466 -535 665 -194
193 -352 318 -601 473 -49 30 -397 202 -410 202 -3 0 -26 9 -49 20 -149 68
-573 221 -896 324 -250 80 -225 74 -440 113 -88 17 -215 18 -1747 19 -909 0
-1654 0 -1655 -1z m1037 -2990 c182 -3 593 -7 915 -10 322 -3 627 -11 679 -16
185 -21 521 -153 639 -252 302 -255 395 -970 200 -1552 -89 -263 -171 -361
-392 -466 -124 -58 -356 -138 -456 -156 -95 -18 -653 -27 -1827 -31 l-653 -2
0 1251 0 1251 283 -6 c155 -3 431 -8 612 -11z"/>
</g>
</svg>
