<?xml version="1.0" standalone="no"?>
<!DOCTYPE svg PUBLIC "-//W3C//DTD SVG 20010904//EN"
 "http://www.w3.org/TR/2001/REC-SVG-20010904/DTD/svg10.dtd">
<svg version="1.0" xmlns="http://www.w3.org/2000/svg"
 width="889.000000pt" height="889.000000pt" viewBox="0 0 889.000000 889.000000"
 preserveAspectRatio="xMidYMid meet">
<metadata>
Created by potrace 1.14, written by Peter Selinger 2001-2017
</metadata>
<g transform="translate(0.000000,889.000000) scale(0.100000,-0.100000)"
fill="#000000" stroke="none">
<path d="M1110 8475 l0 -145 -140 0 -140 0 0 -135 0 -135 -135 0 -135 0 0
-140 0 -140 -140 0 -140 0 0 -140 0 -140 -140 0 -140 0 0 -3055 0 -3055 140 0
140 0 0 -140 0 -140 4165 0 4165 0 0 140 0 140 140 0 140 0 0 2780 0 2780
-140 0 -140 0 0 135 0 135 -140 0 -140 0 0 140 0 140 -1805 0 -1805 0 0 140 0
140 -140 0 -140 0 0 140 0 140 -135 0 -135 0 0 135 0 135 -140 0 -140 0 0 145
0 145 -1390 0 -1390 0 0 -145z m5000 -1945 l0 -140 140 0 140 0 0 -140 0 -140
140 0 140 0 0 -1250 0 -1250 -280 0 -280 0 0 -415 0 -415 140 0 140 0 0 -140
0 -140 140 0 140 0 0 -280 0 -280 -975 0 -975 0 0 560 0 560 -275 0 -275 0 0
-560 0 -560 -975 0 -975 0 0 280 0 280 140 0 140 0 0 140 0 140 140 0 140 0 0
1525 0 1525 -140 0 -140 0 0 140 0 140 -140 0 -140 0 0 280 0 280 1945 0 1945
0 0 -140z"/>
<path d="M4170 5000 l0 -280 555 0 555 0 0 280 0 280 -555 0 -555 0 0 -280z"/>
</g>
</svg>
